<svg xmlns="http://www.w3.org/2000/svg" width="800" height="1000" viewBox="0 0 800 1000" role="img" aria-label="Camiseta Atlas">
  <defs>
    <linearGradient id="bg" x1="0%" x2="100%" y1="0%" y2="100%">
      <stop offset="0%" stop-color="#8edfd3"/>
      <stop offset="100%" stop-color="#0f766e"/>
    </linearGradient>
    <radialGradient id="light" cx="50%" cy="35%" r="60%">
      <stop offset="0%" stop-color="#ffffff" stop-opacity="0.46"/>
      <stop offset="70%" stop-color="#ffffff" stop-opacity="0.08"/>
      <stop offset="100%" stop-color="#ffffff" stop-opacity="0"/>
    </radialGradient>
    <filter id="blur" x="-20%" y="-20%" width="140%" height="140%">
      <feGaussianBlur stdDeviation="32"/>
    </filter>
  </defs>
  <rect width="800" height="1000" rx="42" fill="url(#bg)"/>
  <circle cx="120" cy="120" r="110" fill="#ffffff" opacity="0.14" filter="url(#blur)"/>
  <circle cx="690" cy="150" r="140" fill="#ffffff" opacity="0.10" filter="url(#blur)"/>
  <circle cx="650" cy="870" r="170" fill="#ffffff" opacity="0.08" filter="url(#blur)"/>
  <ellipse cx="400" cy="860" rx="250" ry="70" fill="#000000" opacity="0.22" filter="url(#blur)"/>
  <circle cx="400" cy="520" r="300" fill="url(#light)"/>
  <g transform="translate(400 500)">
    <path d="M-165 -140 L-210 -60 L-150 -34 L-126 -78 L-126 210 L126 210 L126 -78 L150 -34 L210 -60 L165 -140 L92 -176 C60 -152, 25 -138, 0 -138 C-25 -138, -60 -152, -92 -176 Z" fill="#ffffff" opacity="0.97"/>
    <path d="M-76 -170 C-42 -124, 42 -124, 76 -170" stroke="#14b8a6" stroke-width="10" stroke-linecap="round" fill="none" opacity="0.8"/>
    <path d="M-126 -78 C-68 -58, 68 -58, 126 -78" stroke="#ffffff" stroke-opacity="0.18" stroke-width="10" fill="none"/>
    <rect x="-106" y="-46" width="212" height="262" rx="38" fill="#ffffff" opacity="0.08"/>
    <path d="M-150 -34 L-110 -18" stroke="#14b8a6" stroke-width="16" stroke-linecap="round" opacity="0.85"/>
    <path d="M150 -34 L110 -18" stroke="#14b8a6" stroke-width="16" stroke-linecap="round" opacity="0.85"/>
  </g>
  <text x="80" y="928" font-size="34" font-family="Arial, Helvetica, sans-serif" font-weight="700" fill="#ffffff">Camiseta Atlas</text>
  <text x="80" y="960" font-size="18" font-family="Arial, Helvetica, sans-serif" fill="#ffffff" opacity="0.84">Imagen de producto incluida en el proyecto</text>
</svg>
