<svg xmlns="http://www.w3.org/2000/svg" width="800" height="1000" viewBox="0 0 800 1000" role="img" aria-label="Gafas Eclipse">
  <defs>
    <linearGradient id="bg" x1="0%" x2="100%" y1="0%" y2="100%">
      <stop offset="0%" stop-color="#8be9e0"/>
      <stop offset="100%" stop-color="#115e59"/>
    </linearGradient>
    <radialGradient id="light" cx="50%" cy="35%" r="60%">
      <stop offset="0%" stop-color="#ffffff" stop-opacity="0.46"/>
      <stop offset="70%" stop-color="#ffffff" stop-opacity="0.08"/>
      <stop offset="100%" stop-color="#ffffff" stop-opacity="0"/>
    </radialGradient>
    <filter id="blur" x="-20%" y="-20%" width="140%" height="140%">
      <feGaussianBlur stdDeviation="32"/>
    </filter>
  </defs>
  <rect width="800" height="1000" rx="42" fill="url(#bg)"/>
  <circle cx="120" cy="120" r="110" fill="#ffffff" opacity="0.14" filter="url(#blur)"/>
  <circle cx="690" cy="150" r="140" fill="#ffffff" opacity="0.10" filter="url(#blur)"/>
  <circle cx="650" cy="870" r="170" fill="#ffffff" opacity="0.08" filter="url(#blur)"/>
  <ellipse cx="400" cy="860" rx="250" ry="70" fill="#000000" opacity="0.22" filter="url(#blur)"/>
  <circle cx="400" cy="520" r="300" fill="url(#light)"/>
  <g transform="translate(400 520)">
    <path d="M-170 -10 h96 c18 0 32 14 32 32 v28 c0 24-20 44-44 44 h-62 c-40 0-72-32-72-72 v-4 c0-15 12-28 28-28z" fill="#effffd" opacity="0.95"/>
    <path d="M74 -10 h96 c16 0 28 13 28 28 v4 c0 40-32 72-72 72 h-62 c-24 0-44-20-44-44 v-28 c0-18 14-32 32-32z" fill="#effffd" opacity="0.95"/>
    <rect x="-64" y="4" width="128" height="18" rx="9" fill="#0f766e" opacity="0.9"/>
    <path d="M-210 18 L-180 18" stroke="#0f766e" stroke-width="12" stroke-linecap="round"/>
    <path d="M210 18 L180 18" stroke="#0f766e" stroke-width="12" stroke-linecap="round"/>
  </g>
  <text x="80" y="928" font-size="34" font-family="Arial, Helvetica, sans-serif" font-weight="700" fill="#ffffff">Gafas Eclipse</text>
  <text x="80" y="960" font-size="18" font-family="Arial, Helvetica, sans-serif" fill="#ffffff" opacity="0.84">Imagen de producto incluida en el proyecto</text>
</svg>
