<svg xmlns="http://www.w3.org/2000/svg" width="800" height="1000" viewBox="0 0 800 1000" role="img" aria-label="Jeans Nova">
  <defs>
    <linearGradient id="bg" x1="0%" x2="100%" y1="0%" y2="100%">
      <stop offset="0%" stop-color="#87b5ff"/>
      <stop offset="100%" stop-color="#1e3a8a"/>
    </linearGradient>
    <radialGradient id="light" cx="50%" cy="35%" r="60%">
      <stop offset="0%" stop-color="#ffffff" stop-opacity="0.46"/>
      <stop offset="70%" stop-color="#ffffff" stop-opacity="0.08"/>
      <stop offset="100%" stop-color="#ffffff" stop-opacity="0"/>
    </radialGradient>
    <filter id="blur" x="-20%" y="-20%" width="140%" height="140%">
      <feGaussianBlur stdDeviation="32"/>
    </filter>
  </defs>
  <rect width="800" height="1000" rx="42" fill="url(#bg)"/>
  <circle cx="120" cy="120" r="110" fill="#ffffff" opacity="0.14" filter="url(#blur)"/>
  <circle cx="690" cy="150" r="140" fill="#ffffff" opacity="0.10" filter="url(#blur)"/>
  <circle cx="650" cy="870" r="170" fill="#ffffff" opacity="0.08" filter="url(#blur)"/>
  <ellipse cx="400" cy="860" rx="250" ry="70" fill="#000000" opacity="0.22" filter="url(#blur)"/>
  <circle cx="400" cy="520" r="300" fill="url(#light)"/>
  <g transform="translate(400 500)">
    <path d="M-118 -182 C-82 -198, -46 -206, 0 -206 C46 -206, 82 -198, 118 -182 L110 -10 L70 220 L10 220 L-2 34 L-10 34 L-22 220 L-70 220 L-110 -10 Z" fill="#dbeafe" opacity="0.97"/>
    <path d="M-118 -182 C-90 -132, -84 -72, -72 -6" stroke="#2563eb" stroke-width="7" opacity="0.75" fill="none"/>
    <path d="M118 -182 C90 -132, 84 -72, 72 -6" stroke="#2563eb" stroke-width="7" opacity="0.75" fill="none"/>
    <path d="M-70 -6 L-92 220" stroke="#ffffff" stroke-opacity="0.15" stroke-width="8"/>
    <path d="M70 -6 L92 220" stroke="#ffffff" stroke-opacity="0.15" stroke-width="8"/>
    <rect x="-94" y="-118" width="70" height="64" rx="12" fill="#ffffff" opacity="0.1"/>
    <rect x="24" y="-118" width="70" height="64" rx="12" fill="#ffffff" opacity="0.1"/>
    <rect x="-24" y="-36" width="48" height="246" rx="22" fill="#ffffff" opacity="0.08"/>
    <circle cx="0" cy="-174" r="10" fill="#2563eb"/>
    <circle cx="0" cy="-138" r="10" fill="#2563eb"/>
  </g>
  <text x="80" y="928" font-size="34" font-family="Arial, Helvetica, sans-serif" font-weight="700" fill="#ffffff">Jeans Nova</text>
  <text x="80" y="960" font-size="18" font-family="Arial, Helvetica, sans-serif" fill="#ffffff" opacity="0.84">Imagen de producto incluida en el proyecto</text>
</svg>
