<svg xmlns="http://www.w3.org/2000/svg" width="800" height="1000" viewBox="0 0 800 1000" role="img" aria-label="Reloj Chrono">
  <defs>
    <linearGradient id="bg" x1="0%" x2="100%" y1="0%" y2="100%">
      <stop offset="0%" stop-color="#b6c0cf"/>
      <stop offset="100%" stop-color="#334155"/>
    </linearGradient>
    <radialGradient id="light" cx="50%" cy="35%" r="60%">
      <stop offset="0%" stop-color="#ffffff" stop-opacity="0.46"/>
      <stop offset="70%" stop-color="#ffffff" stop-opacity="0.08"/>
      <stop offset="100%" stop-color="#ffffff" stop-opacity="0"/>
    </radialGradient>
    <filter id="blur" x="-20%" y="-20%" width="140%" height="140%">
      <feGaussianBlur stdDeviation="32"/>
    </filter>
  </defs>
  <rect width="800" height="1000" rx="42" fill="url(#bg)"/>
  <circle cx="120" cy="120" r="110" fill="#ffffff" opacity="0.14" filter="url(#blur)"/>
  <circle cx="690" cy="150" r="140" fill="#ffffff" opacity="0.10" filter="url(#blur)"/>
  <circle cx="650" cy="870" r="170" fill="#ffffff" opacity="0.08" filter="url(#blur)"/>
  <ellipse cx="400" cy="860" rx="250" ry="70" fill="#000000" opacity="0.22" filter="url(#blur)"/>
  <circle cx="400" cy="520" r="300" fill="url(#light)"/>
  <g transform="translate(400 520)">
    <rect x="-170" y="-34" width="340" height="68" rx="34" fill="#64748b" opacity="0.88"/>
    <rect x="-52" y="-130" width="104" height="260" rx="52" fill="#e5e7eb" opacity="0.98"/>
    <circle cx="0" cy="0" r="76" fill="#ffffff" opacity="0.07"/>
    <circle cx="0" cy="0" r="58" fill="#ffffff" opacity="0.14"/>
    <circle cx="0" cy="0" r="44" fill="none" stroke="#64748b" stroke-width="8"/>
    <path d="M0 0 L0 -26" stroke="#64748b" stroke-width="7" stroke-linecap="round"/>
    <path d="M0 0 L22 10" stroke="#64748b" stroke-width="7" stroke-linecap="round"/>
    <circle cx="0" cy="0" r="6" fill="#64748b"/>
    <rect x="-20" y="-166" width="40" height="34" rx="10" fill="#e5e7eb" opacity="0.85"/>
    <rect x="-20" y="132" width="40" height="34" rx="10" fill="#e5e7eb" opacity="0.85"/>
  </g>
  <text x="80" y="928" font-size="34" font-family="Arial, Helvetica, sans-serif" font-weight="700" fill="#ffffff">Reloj Chrono</text>
  <text x="80" y="960" font-size="18" font-family="Arial, Helvetica, sans-serif" fill="#ffffff" opacity="0.84">Imagen de producto incluida en el proyecto</text>
</svg>
