<svg xmlns="http://www.w3.org/2000/svg" width="800" height="1000" viewBox="0 0 800 1000" role="img" aria-label="Sneakers Pulse">
  <defs>
    <linearGradient id="bg" x1="0%" x2="100%" y1="0%" y2="100%">
      <stop offset="0%" stop-color="#ffd59a"/>
      <stop offset="100%" stop-color="#c2410c"/>
    </linearGradient>
    <radialGradient id="light" cx="50%" cy="35%" r="60%">
      <stop offset="0%" stop-color="#ffffff" stop-opacity="0.46"/>
      <stop offset="70%" stop-color="#ffffff" stop-opacity="0.08"/>
      <stop offset="100%" stop-color="#ffffff" stop-opacity="0"/>
    </radialGradient>
    <filter id="blur" x="-20%" y="-20%" width="140%" height="140%">
      <feGaussianBlur stdDeviation="32"/>
    </filter>
  </defs>
  <rect width="800" height="1000" rx="42" fill="url(#bg)"/>
  <circle cx="120" cy="120" r="110" fill="#ffffff" opacity="0.14" filter="url(#blur)"/>
  <circle cx="690" cy="150" r="140" fill="#ffffff" opacity="0.10" filter="url(#blur)"/>
  <circle cx="650" cy="870" r="170" fill="#ffffff" opacity="0.08" filter="url(#blur)"/>
  <ellipse cx="400" cy="860" rx="250" ry="70" fill="#000000" opacity="0.22" filter="url(#blur)"/>
  <circle cx="400" cy="520" r="300" fill="url(#light)"/>
  <g transform="translate(400 535)">
    <path d="M-170 42 C-120 -12, -28 -22, 58 -24 L188 -6 L192 42 C146 72, 70 88, -30 88 L-154 88 C-172 88, -184 68, -170 42 Z" fill="#ffffff" opacity="0.98"/>
    <path d="M-140 28 L-34 28" stroke="#f97316" stroke-width="11" stroke-linecap="round"/>
    <path d="M-98 4 L16 4" stroke="#f97316" stroke-width="11" stroke-linecap="round"/>
    <path d="M-52 -18 L54 -18" stroke="#f97316" stroke-width="11" stroke-linecap="round"/>
    <path d="M56 -24 L178 -8" stroke="#ffffff" stroke-opacity="0.14" stroke-width="8"/>
    <path d="M-164 84 C-90 120, 80 120, 192 76" stroke="#ffffff" stroke-opacity="0.18" stroke-width="18" fill="none" stroke-linecap="round"/>
    <ellipse cx="0" cy="82" rx="190" ry="24" fill="#000000" opacity="0.18"/>
  </g>
  <text x="80" y="928" font-size="34" font-family="Arial, Helvetica, sans-serif" font-weight="700" fill="#ffffff">Sneakers Pulse</text>
  <text x="80" y="960" font-size="18" font-family="Arial, Helvetica, sans-serif" fill="#ffffff" opacity="0.84">Imagen de producto incluida en el proyecto</text>
</svg>
