<svg xmlns="http://www.w3.org/2000/svg" width="800" height="1000" viewBox="0 0 800 1000" role="img" aria-label="Sudadera Vertex">
  <defs>
    <linearGradient id="bg" x1="0%" x2="100%" y1="0%" y2="100%">
      <stop offset="0%" stop-color="#7b8cff"/>
      <stop offset="100%" stop-color="#312e81"/>
    </linearGradient>
    <radialGradient id="light" cx="50%" cy="35%" r="60%">
      <stop offset="0%" stop-color="#ffffff" stop-opacity="0.46"/>
      <stop offset="70%" stop-color="#ffffff" stop-opacity="0.08"/>
      <stop offset="100%" stop-color="#ffffff" stop-opacity="0"/>
    </radialGradient>
    <filter id="blur" x="-20%" y="-20%" width="140%" height="140%">
      <feGaussianBlur stdDeviation="32"/>
    </filter>
  </defs>
  <rect width="800" height="1000" rx="42" fill="url(#bg)"/>
  <circle cx="120" cy="120" r="110" fill="#ffffff" opacity="0.14" filter="url(#blur)"/>
  <circle cx="690" cy="150" r="140" fill="#ffffff" opacity="0.10" filter="url(#blur)"/>
  <circle cx="650" cy="870" r="170" fill="#ffffff" opacity="0.08" filter="url(#blur)"/>
  <ellipse cx="400" cy="860" rx="250" ry="70" fill="#000000" opacity="0.22" filter="url(#blur)"/>
  <circle cx="400" cy="520" r="300" fill="url(#light)"/>
  <g transform="translate(400 502)">
    <path d="M-170 -145 C-130 -208,-62 -242,0 -242 C62 -242,130 -208,170 -145 L214 -62 L166 6 L122 -14 L122 220 L-122 220 L-122 -14 L-166 6 L-214 -62 Z" fill="#cfd6ff" opacity="0.97"/>
    <path d="M-96 -190 C-42 -230,42 -230,96 -190" stroke="#4f46e5" stroke-width="14" stroke-linecap="round" fill="none" opacity="0.86"/>
    <path d="M-122 -14 C-70 6,70 6,122 -14" stroke="#ffffff" stroke-opacity="0.15" stroke-width="10" fill="none"/>
    <rect x="-60" y="-12" width="120" height="232" rx="34" fill="#ffffff" opacity="0.08"/>
    <path d="M0 -114 L0 220" stroke="#4f46e5" stroke-width="7" opacity="0.7"/>
    <path d="M-124 -14 L-160 14" stroke="#4f46e5" stroke-width="16" stroke-linecap="round" opacity="0.85"/>
    <path d="M124 -14 L160 14" stroke="#4f46e5" stroke-width="16" stroke-linecap="round" opacity="0.85"/>
  </g>
  <text x="80" y="928" font-size="34" font-family="Arial, Helvetica, sans-serif" font-weight="700" fill="#ffffff">Sudadera Vertex</text>
  <text x="80" y="960" font-size="18" font-family="Arial, Helvetica, sans-serif" fill="#ffffff" opacity="0.84">Imagen de producto incluida en el proyecto</text>
</svg>
